<?xml version="1.0" encoding="UTF-8" standalone="no"?>
<svg
   xmlns:dc="http://purl.org/dc/elements/1.1/"
   xmlns:cc="http://creativecommons.org/ns#"
   xmlns:rdf="http://www.w3.org/1999/02/22-rdf-syntax-ns#"
   xmlns:svg="http://www.w3.org/2000/svg"
   xmlns="http://www.w3.org/2000/svg"
   xmlns:sodipodi="http://sodipodi.sourceforge.net/DTD/sodipodi-0.dtd"
   xmlns:inkscape="http://www.inkscape.org/namespaces/inkscape"
   width="303mm"
   height="65mm"
   viewBox="0 0 303 65"
   version="1.1"
   id="svg8"
   inkscape:version="1.0.2-2 (e86c870879, 2021-01-15)"
   sodipodi:docname="signature.svg">
  <defs
     id="defs2" />
  <sodipodi:namedview
     id="base"
     pagecolor="#ffffff"
     bordercolor="#666666"
     borderopacity="1.0"
     inkscape:pageopacity="0.0"
     inkscape:pageshadow="2"
     inkscape:zoom="0.98994949"
     inkscape:cx="553.87922"
     inkscape:cy="68.28847"
     inkscape:document-units="mm"
     inkscape:current-layer="layer1"
     inkscape:document-rotation="0"
     showgrid="false"
     units="mm"
     height="296mm"
     inkscape:window-width="1920"
     inkscape:window-height="1025"
     inkscape:window-x="1912"
     inkscape:window-y="-8"
     inkscape:window-maximized="1" />
  <metadata
     id="metadata5">
    <rdf:RDF>
      <cc:Work
         rdf:about="">
        <dc:format>image/svg+xml</dc:format>
        <dc:type
           rdf:resource="http://purl.org/dc/dcmitype/StillImage" />
        <dc:title></dc:title>
      </cc:Work>
    </rdf:RDF>
  </metadata>
  <g
     inkscape:label="Layer 1"
     inkscape:groupmode="layer"
     id="layer1">
    <path
       style="fill:#04508b;stroke-width:0.264583"
       d="m 45.092143,63.440015 c -4.149775,-0.73429 -7.45943,-3.03446 -8.516321,-5.91873 -0.248878,-0.67918 -0.898128,-2.30644 -1.442778,-3.61613 -0.54465,-1.30969 -1.549001,-3.98859 -2.231885,-5.95312 -2.016636,-5.80147 -4.100631,-10.68015 -5.651595,-13.2305 l -0.484463,-0.79663 -2.079567,2.71408 c -3.284248,4.28634 -5.666973,7.04121 -6.250117,7.22629 -0.977506,0.31025 -1.151845,-0.31333 -0.32013,-1.14505 1.744239,-1.74424 7.773488,-9.26353 7.773488,-9.6946 0,-0.0891 -0.446485,0.0258 -0.992188,0.25526 -1.395614,0.58683 -6.1736,1.85184 -8.532812,2.25913 -2.957995,0.51067 -8.2276262,0.45546 -10.3099491,-0.10801 -3.2814688,-0.88796 -5.13953252,-2.63354 -5.09707122,-4.78852 0.063904,-3.24322 3.25220362,-6.5987 7.31483812,-7.698406 1.670747,-0.45225 1.7563872,-0.519412 3.4981542,-2.743427 5.329743,-6.805404 12.985207,-13.268417 19.564798,-16.5172944 3.732705,-1.843138 5.852338,-2.406388 9.106313,-2.419818 2.550427,-0.01053 2.897396,0.0504 4.233333,0.743393 3.101216,1.60869 4.310954,3.7002534 4.307393,7.4472254 -0.0042,4.454119 -1.685086,8.285799 -5.290288,12.05975 -1.062257,1.111978 -1.200047,1.419386 -1.672206,3.730647 -0.601396,2.94388 -1.234295,4.48828 -2.540641,6.19969 -0.792112,1.03772 -0.921993,1.38846 -0.797718,2.15427 0.177286,1.09249 0.888351,2.26114 1.242583,2.04221 0.411335,-0.25422 0.299747,-2.40274 -0.143914,-2.77094 -0.218282,-0.18116 -0.396875,-0.50711 -0.396875,-0.72435 0,-0.32302 0.257685,-0.36276 1.414785,-0.21819 2.525993,0.3156 4.261948,-0.3693 5.233019,-2.06464 0.220184,-0.38441 0.203883,-0.4655 -0.07367,-0.36648 -0.196033,0.0699 -0.572469,0.0159 -0.836528,-0.12013 -0.690801,-0.35581 -0.137695,-0.92029 1.10794,-1.13074 0.890082,-0.15038 1.282419,-0.52877 3.744775,-3.61166 7.845017,-9.822018 19.996748,-19.5789714 26.82722,-21.5402984 2.022443,-0.580732 4.886857,-0.426035 6.371003,0.344075 1.418667,0.736134 3.125827,2.5460934 3.928163,4.1647034 1.358434,2.740464 1.566976,6.625804 0.490397,9.136532 -0.50668,1.181648 -2.776784,4.607558 -3.244734,4.896766 -0.136281,0.08423 -0.247785,1.266468 -0.247785,2.627202 v 2.47406 l 1.521355,-0.36359 c 2.120466,-0.50676 2.976562,-0.48849 2.976562,0.0635 0,0.24529 -0.244517,0.70625 -0.543369,1.02436 l -0.54337,0.57839 0.67237,-0.12853 c 0.88904,-0.16995 1.11846,0.4527 0.571087,1.54993 -0.468924,0.93998 -0.542642,1.55697 -0.186028,1.55697 0.580813,0 1.445402,-1.0604 1.84359,-2.26112 0.329485,-0.99355 0.578744,-1.33122 1.029991,-1.3953 0.327422,-0.0465 0.595312,0.0428 0.595312,0.19843 0,0.1571 0.506688,0.28299 1.139032,0.28299 h 1.139031 l 0.33275,-2.05052 c 0.939901,-5.791967 3.363751,-13.536537 4.681311,-14.95746 0.726526,-0.783535 0.857906,-0.827704 1.414256,-0.475487 0.79267,0.501828 -0.22433,8.784735 -1.541046,12.550982 -0.29801,0.852395 -0.90057,2.212145 -1.339019,3.021675 -0.43846,0.80953 -0.74191,1.52716 -0.67433,1.59474 0.0676,0.0676 1.210529,-0.0166 2.539879,-0.1871 1.740326,-0.22319 2.513866,-0.22958 2.762976,-0.0228 0.49796,0.41328 0.61659,0.0761 0.81645,-2.32025 0.0979,-1.173752 0.26878,-2.281017 0.37976,-2.460593 0.35839,-0.579895 0.97724,-0.05462 1.16193,0.986256 0.30153,1.699247 0.40845,1.884897 1.25578,2.180277 0.7647,0.26657 0.80767,0.34989 0.65953,1.27888 -0.54568,3.42194 -0.54613,3.2427 0.008,3.2427 0.76693,0 2.78744,-1.43125 3.33631,-2.36332 0.72806,-1.23638 1.39631,-1.0698 1.25561,0.31301 -0.11688,1.14861 2.20647,1.09561 4.55784,-0.10398 1.04547,-0.53335 1.51377,-0.47143 1.51377,0.20016 0,0.53737 -2.55511,1.67239 -4.20461,1.86775 -0.99092,0.11736 -1.503,0.048 -1.98673,-0.26889 -0.62493,-0.40948 -0.70786,-0.38922 -2.01927,0.49329 -1.43593,0.96632 -3.01749,1.22804 -3.64272,0.60281 -0.37591,-0.37591 -0.42121,-2.55027 -0.0723,-3.46808 0.20887,-0.54936 0.14816,-0.68926 -0.40933,-0.94327 -0.86559,-0.3944 -0.89424,-0.38662 -0.89424,0.24269 0,1.3303 -0.88142,3.93503 -1.59653,4.71797 -0.91963,1.00688 -1.48876,1.04831 -1.90327,0.13857 -0.25365,-0.55671 -0.2297,-0.92082 0.12552,-1.90864 0.24142,-0.67138 0.3952,-1.26444 0.34172,-1.31792 -0.17156,-0.17156 -5.290453,0.55104 -5.604675,0.79117 -0.454511,0.34734 -0.566184,2.00143 -0.236751,3.50673 0.160856,0.73502 0.225708,1.96147 0.144113,2.72545 l -0.148148,1.38906 h 1.952496 c 1.073869,0 3.657655,0.13536 5.741755,0.30081 l 3.78928,0.30081 2.20308,-1.53481 c 7.50971,-5.23173 14.14472,-12.11959 19.07604,-19.803011 2.61456,-4.073709 5.63605,-10.421109 5.17847,-10.8786904 -0.4136,-0.413597 -6.27239,2.5442964 -14.11394,7.1256204 -3.53664,2.066242 -5.08773,2.706324 -5.51726,2.27679 -0.40208,-0.402077 0.002,-0.986067 0.79817,-1.152803 0.41269,-0.08645 1.70284,-0.711057 2.86701,-1.388005 9.26405,-5.386926 14.42193,-8.0550464 15.57162,-8.0550464 2.12255,0 1.99531,1.8837884 -0.45552,6.7443594 -5.22195,10.356354 -12.85364,19.142146 -22.52359,25.929726 -0.72713,0.5104 -1.14385,0.93429 -0.92604,0.94198 0.21782,0.008 3.55119,0.34951 7.40749,0.7596 6.27165,0.66694 7.04575,0.70283 7.33649,0.34011 0.17877,-0.22303 0.2594,-0.66703 0.17917,-0.98668 -0.1147,-0.45698 0.0482,-0.69569 0.76243,-1.11708 0.76532,-0.45155 2.91697,-3.53766 4.77045,-6.84226 0.11849,-0.21124 -0.12252,-0.21532 -0.87381,-0.0148 -0.78342,0.20911 -1.19358,0.19333 -1.67525,-0.0645 -0.53529,-0.28648 -0.76913,-0.27347 -1.45448,0.0809 -1.02928,0.53226 -2.13598,0.54337 -2.3355,0.0234 -0.33265,-0.86688 0.21324,-2.28315 1.32876,-3.44737 1.181,-1.23256 1.66927,-1.43795 1.91237,-0.80443 0.0838,0.21843 -0.2908,0.81167 -0.89255,1.41342 -0.96345,0.96345 -1.59687,2.17891 -1.13551,2.17891 0.28148,0 2.19011,-1.40967 2.62701,-1.94026 0.76263,-0.92614 1.55633,-0.37492 1.05247,0.73093 -0.17101,0.37532 -0.24312,0.75021 -0.16024,0.83309 0.44056,0.44056 4.20443,-2.57318 4.94736,-3.96136 0.35395,-0.66136 1.16037,-0.92621 1.44043,-0.47308 0.14162,0.22916 -0.0739,0.59118 -1.92372,3.23065 -0.63785,0.91017 -0.99504,1.55336 -0.79375,1.42933 0.2013,-0.12404 1.08941,-0.7309 1.97358,-1.34859 2.14144,-1.49602 5.32342,-2.99864 6.34996,-2.99864 0.51296,0 1.09548,0.24723 1.52882,0.64883 0.77377,0.71711 0.8361,0.98391 0.41407,1.77248 -0.47283,0.8835 -0.0722,0.8548 0.72719,-0.0521 0.90074,-1.0219 3.18709,-2.75465 3.95727,-2.9991 0.69301,-0.219953 1.26501,0.40448 1.03484,1.1297 -0.19261,0.60685 -3.15882,2.89008 -4.04283,3.11196 -1.08591,0.27254 -0.65126,0.69653 0.57264,0.55858 2.06545,-0.23281 6.36398,-2.53202 9.63669,-5.154504 0.77732,-0.622884 1.5252,-1.132517 1.66195,-1.132517 0.60219,0 0.45804,0.845699 -0.41482,2.433681 -0.51736,0.94122 -0.94066,1.85025 -0.94066,2.02006 0,0.57722 1.80961,0.31412 5.16259,-0.7506 2.1515,-0.68318 3.5707,-1.00047 3.99675,-0.89354 1.00236,0.25158 1.5148,1.22871 1.36081,2.59487 -0.072,0.63842 -0.0424,1.30389 0.0657,1.47881 0.27665,0.44763 1.87982,0.1306 3.92012,-0.77521 l 1.6737,-0.74306 -1.24341,-0.14015 c -1.95675,-0.22056 -2.20052,-1.2962 -0.40342,-1.7801 0.54159,-0.14584 2.88083,-0.49153 5.19832,-0.76822 2.43144,-0.29028 5.15906,-0.79484 6.44897,-1.19292 2.48884,-0.768095 4.12656,-0.877653 4.75526,-0.318113 0.35913,0.319623 1.34533,0.304213 7.03229,-0.109847 14.97088,-1.090022 32.41118,-1.301967 42.70067,-0.518924 3.06808,0.233484 6.33821,0.115091 25.38967,-0.919226 12.0274,-0.652976 23.23721,-1.256588 24.9107,-1.341358 5.52977,-0.280108 14.41082,-0.933655 14.94795,-1.100003 0.29049,-0.08996 0.65673,-0.339428 0.81392,-0.554367 0.33617,-0.459769 1.31058,-0.240789 1.5354,0.345055 0.22394,0.583598 -0.81402,1.119475 -2.74519,1.417296 -1.7196,0.265195 -11.25849,0.915273 -17.99166,1.226135 -1.96453,0.0907 -10.94693,0.572683 -19.9609,1.07107 -9.01396,0.498388 -16.75303,0.918362 -17.19792,0.933272 -0.61167,0.0205 -0.45409,0.10771 0.64632,0.35767 2.79089,0.63398 3.62997,0.9419 4.72172,1.73276 0.84712,0.61365 1.09911,0.96961 1.09911,1.5526 0,2.10286 -3.34099,3.79548 -11.50937,5.83093 -8.22195,2.04879 -15.74692,3.03565 -23.28334,3.05349 -5.09548,0.0121 -5.69886,-0.0362 -7.27604,-0.58208 -1.03296,-0.35751 -2.34163,-1.09718 -3.27684,-1.85208 -2.63642,-2.12812 -3.15662,-2.45116 -4.65187,-2.88879 -1.97944,-0.57935 -4.84853,-0.35665 -10.38079,0.80574 -5.18789,1.09004 -9.32172,1.64908 -10.32752,1.39663 -1.69546,-0.42553 -1.56106,-2.15883 0.32764,-4.22536 l 1.28093,-1.40155 -4.67588,0.11377 -4.67588,0.11376 -2.64583,1.18783 c -1.72291,0.77348 -3.16657,1.23538 -4.1387,1.32415 -1.38624,0.12659 -1.52501,0.0873 -1.94282,-0.55037 -0.28175,-0.43002 -0.42747,-1.11037 -0.38982,-1.8201 0.0331,-0.62337 0.0441,-1.28223 0.0246,-1.46413 -0.0584,-0.54328 -1.12514,-0.3836 -4.16588,0.62357 -4.60294,1.52462 -6.33429,1.31558 -6.13816,-0.74111 0.0528,-0.55382 0.0566,-1.00694 0.008,-1.00694 -0.0482,0 -0.80251,0.48545 -1.67622,1.07878 -3.92743,2.66706 -8.21422,3.91667 -9.48645,2.76532 -0.28002,-0.25341 -0.71158,-0.38623 -0.98168,-0.30211 -0.26509,0.0826 -0.64946,0.045 -0.85416,-0.0835 -0.26293,-0.16505 -0.92737,0.18422 -2.26343,1.18982 -2.60811,1.96303 -5.1504,3.09164 -7.15397,3.1759 -1.54583,0.065 -1.61379,0.0995 -2.58908,1.31537 -0.55087,0.68674 -0.9587,1.2915 -0.90629,1.34391 0.0524,0.0524 1.75328,-0.19249 3.77971,-0.54423 15.66254,-2.71866 32.41465,-2.62602 45.15385,0.24968 5.4524,1.23081 10.22381,2.94925 11.48897,4.13781 0.91245,0.8572 0.81389,1.75905 -0.24018,2.19777 -2.7553,1.14677 -13.11568,1.75242 -24.51694,1.43321 -7.9917,-0.22375 -13.67206,-0.66277 -27.14296,-2.09782 -5.38427,-0.57358 -10.2063,-1.04048 -10.71562,-1.03754 -0.84515,0.005 -1.02442,0.1551 -2.05223,1.71963 -0.6194,0.94286 -1.24821,1.71428 -1.39736,1.71428 -0.66652,0 -0.51626,-0.91094 0.37054,-2.24658 l 0.95303,-1.43536 -0.85522,-0.13465 c -0.85896,-0.13524 -5.8516,-0.66318 -11.63074,-1.22989 l -3.10259,-0.30424 -2.68824,1.65198 c -4.34257,2.66861 -9.923478,5.01654 -13.517303,5.68685 -0.582303,0.10861 -1.138155,0.42484 -1.370769,0.77985 -3.254584,4.96713 -10.772299,9.55457 -22.123699,13.50026 -8.344643,2.90056 -16.989446,4.13462 -22.336215,3.18852 z m 9.503923,-1.23224 c 4.997498,-0.58877 11.63252,-2.50388 17.991667,-5.19307 7.122993,-3.0122 10.238396,-4.89136 13.489484,-8.13663 l 2.385515,-2.38125 -1.058333,-0.0657 c -7.253015,-0.45063 -10.341454,-4.31638 -5.766443,-7.21776 2.309794,-1.46483 6.090484,-2.35758 10.030547,-2.36854 l 1.882857,-0.005 0.135607,-2.71198 c 0.07458,-1.49159 0.08684,-2.76525 0.02723,-2.83036 -0.05961,-0.0651 -0.450504,0.0837 -0.868662,0.33073 -0.927258,0.54774 -1.700429,0.57447 -2.116478,0.0732 -0.268285,-0.32327 -0.418457,-0.31486 -1.071671,0.06 -0.641409,0.36811 -0.89942,0.38545 -1.657406,0.11136 -0.493755,-0.17855 -1.252426,-0.32463 -1.685933,-0.32463 -1.761389,0 -1.846408,-1.07376 -0.274804,-3.47074 l 0.454118,-0.69262 -1.200052,0.27461 c -1.104773,0.25281 -1.223108,0.36032 -1.490449,1.35408 -0.38659,1.43705 -0.869344,2.33479 -1.865786,3.46967 -0.820846,0.9349 -0.826013,0.95922 -0.670838,3.15807 0.125484,1.77809 0.07858,2.28048 -0.237381,2.54271 -0.517215,0.42925 -0.746218,0.1395 -1.166868,-1.47641 -0.18941,-0.7276 -0.392695,-1.41239 -0.451744,-1.52175 -0.05905,-0.10936 -0.784834,0.15828 -1.612855,0.59475 -1.825774,0.9624 -3.483965,1.0652 -4.283618,0.26555 -0.291041,-0.29105 -0.529166,-0.71082 -0.529166,-0.93284 0,-0.36184 -0.08089,-0.36184 -0.780611,0 -0.985264,0.5095 -2.233774,0.51912 -2.64767,0.0204 -0.271975,-0.32771 -0.474144,-0.2702 -1.39501,0.39687 -0.592315,0.42908 -1.207902,0.78033 -1.36797,0.78057 -0.160068,2.4e-4 -0.73896,0.47649 -1.286425,1.05833 -1.377371,1.46386 -2.316443,1.45931 -3.247594,-0.0157 -0.423508,-0.67088 -0.616572,-1.2664 -0.514657,-1.5875 0.180179,-0.56769 0.661279,-0.66794 1.099997,-0.22923 0.20314,0.20314 0.249407,0.10032 0.161587,-0.35909 -0.141142,-0.73834 0.944705,-1.77763 1.857264,-1.77763 0.69969,0 1.506505,0.73846 1.506505,1.37888 0,0.48907 0.0231,0.48977 0.827096,0.0251 0.454903,-0.26289 1.128903,-0.92951 1.49778,-1.48137 0.839877,-1.25651 1.511583,-1.22019 1.511583,0.0817 0,1.31109 0.733382,1.3112 2.452764,2.6e-4 1.601099,-1.22065 1.930484,-1.27497 3.02128,-0.49826 0.665411,0.47382 0.77648,0.70831 0.689284,1.45521 -0.05717,0.48971 -0.06358,0.89038 -0.01423,0.89038 0.262843,0 2.174013,-1.09062 2.317219,-1.32233 0.392128,-0.63448 -2.167978,-4.12401 -3.9584,-5.39547 -0.44641,-0.31701 -0.468675,-0.42955 -0.158853,-0.80286 0.292357,-0.35227 0.649338,-0.40147 1.89253,-0.26081 0.842714,0.0953 2.058337,0.0944 2.701388,-0.002 l 1.169183,-0.17533 0.179729,-2.15513 c 0.222528,-2.668288 1.396495,-7.44886 2.01757,-8.215857 0.395171,-0.488014 0.524134,-0.519369 0.889389,-0.216234 0.306427,0.254311 0.429215,0.81289 0.434318,1.975794 l 0.0071,1.621206 0.787683,-0.926042 c 0.433226,-0.509322 1.174165,-1.697444 1.646528,-2.640269 0.756796,-1.510538 0.858338,-1.966399 0.85457,-3.836459 C 87.125631,7.994061 83.824715,3.7785346 79.9855,3.7692506 76.336012,3.7604506 69.840147,7.276162 63.001655,12.96136 l -2.177732,1.810465 -0.113424,3.427108 c -0.06238,1.884909 -0.200126,4.111717 -0.306092,4.948462 -0.18915,1.49361 -0.180742,1.52135 0.461124,1.52135 1.265693,0 1.205722,0.91444 -0.07847,1.19649 -0.51017,0.11206 -0.923092,0.45769 -1.204651,1.00836 -0.554119,1.08373 -2.739485,3.82231 -3.738015,4.68427 -0.66399,0.57317 -0.805733,0.9324 -0.968827,2.45535 -0.201999,1.88624 -0.01961,3.63244 0.480616,4.60156 0.398544,0.77213 0.893802,0.45057 1.348594,-0.8756 0.359352,-1.04786 1.019953,-1.4821 1.268674,-0.83395 0.214279,0.55841 -0.518035,2.39792 -1.164084,2.92409 -0.936929,0.76308 -1.864641,0.48574 -2.477897,-0.74078 -0.41951,-0.83902 -0.529167,-1.5875 -0.529167,-3.61193 0,-2.31203 -0.04215,-2.53103 -0.445627,-2.3151 -0.556122,0.29763 -1.465445,0.31022 -1.582846,0.0219 -0.04851,-0.11912 -0.580062,-0.16749 -1.181232,-0.1075 -0.80527,0.0804 -1.179264,0.27019 -1.420548,0.72104 -0.419518,0.78388 -1.809935,1.53514 -2.61988,1.41555 -0.380895,-0.0562 -0.8064,-0.42661 -1.08136,-0.94126 l -0.453351,-0.84855 -1.607164,2.70063 c -4.40315,7.39892 -6.409033,12.82544 -6.409033,17.33837 0,1.62881 0.08761,1.90493 1.092253,3.44249 2.070451,3.16873 3.6816,4.22791 5.956829,3.91606 1.629772,-0.22339 2.48217,-0.72757 4.587023,-2.71319 1.010129,-0.9529 1.960393,-1.65603 2.111703,-1.56252 0.421047,0.26022 0.340754,0.5126 -0.499465,1.56987 -1.113962,1.40174 -3.27492,3.0482 -4.721362,3.59726 l -1.247894,0.47369 1.585976,0.17393 c 0.872288,0.0957 1.824103,0.20592 2.115145,0.24502 0.797174,0.10709 3.938558,-0.0812 6.614583,-0.39648 z M 37.27655,45.954785 c 0.852625,-2.44127 4.010348,-8.77533 5.661787,-11.35695 l 0.935532,-1.46247 h -1.348314 c -1.311391,0 -1.3437,0.0184 -1.179809,0.67137 0.234209,0.93317 -0.291251,2.70439 -0.898755,3.02951 -0.780439,0.41768 -1.773558,-0.18393 -2.383478,-1.44386 -0.29319,-0.60564 -0.533072,-1.23379 -0.533072,-1.39589 0,-0.35448 -2.17057,0.82097 -3.090762,1.67377 -1.312381,1.21628 -3.615666,1.02359 -3.955624,-0.33091 -0.399063,-1.58999 2.218884,-5.37899 3.716518,-5.37899 0.824304,0 1.046337,0.36397 1.094637,1.79437 0.05066,1.50044 0.376893,1.80212 1.226261,1.13401 0.553943,-0.43574 0.700307,-0.83573 0.8499,-2.3227 0.09939,-0.98797 0.253812,-2.26291 0.343149,-2.8332 l 0.162436,-1.0369 -0.900862,0.6702 c -1.336003,0.99394 -4.338981,2.66144 -6.589403,3.65898 -3.172065,1.40607 -3.151457,1.35996 -1.734309,3.87996 1.519219,2.70151 3.142163,6.51 4.996056,11.72403 2.269352,6.38249 2.037617,6.03329 2.449602,3.69129 0.193239,-1.09848 0.723567,-3.06301 1.17851,-4.36562 z m 51.847641,-1.15886 c 0,-0.4839 -0.836565,-1.0681 -1.930136,-1.34788 -1.699331,-0.43476 -1.774031,-0.47469 -1.774031,-0.94852 0,-0.3743 0.20053,-0.41829 1.308693,-0.28704 1.756471,0.20803 2.924077,0.85346 3.287114,1.81706 0.280578,0.74473 0.363456,0.78329 1.34619,0.62632 2.635615,-0.42098 7.689163,-2.52583 11.652789,-4.85351 l 2.11667,-1.24303 -1.32292,-0.16943 c -0.7276,-0.0932 -3.64463,-0.25298 -6.482285,-0.3551 -7.921314,-0.28507 -11.829326,0.2555 -14.832032,2.05162 -1.544717,0.924 -2.174047,1.97388 -1.670222,2.78635 0.34584,0.5577 2.280248,1.65626 3.378393,1.91861 1.203592,0.28754 4.921777,0.29098 4.921777,0.005 z m 88.635409,-2.40055 c 2.4011,-0.14164 5.37766,-0.43745 6.61459,-0.65736 1.23692,-0.21992 2.27872,-0.40001 2.3151,-0.4002 0.0364,-2e-4 0.0661,-0.11701 0.0661,-0.25957 0,-0.67068 -5.08871,-2.62227 -9.75229,-3.74014 -13.3722,-3.20536 -29.73441,-3.33504 -47.13313,-0.37357 -3.49736,0.59529 -3.88895,0.71801 -4.43036,1.38848 -0.54613,0.67631 -0.55677,0.75007 -0.1323,0.91689 0.4442,0.17457 18.26511,2.04961 24.80328,2.6097 8.86813,0.75968 19.99523,0.96725 27.64896,0.51577 z M 64.099426,37.208095 c 0.59686,-0.22903 0.518636,-0.50259 -0.242943,-0.84959 -0.670806,-0.30564 -0.790798,-0.16389 -0.500859,0.59168 0.182658,0.476 0.17889,0.47469 0.743802,0.25791 z m 157.549514,-1.82782 c 2.38377,-0.21933 5.18174,-0.52398 6.21771,-0.67701 11.52359,-1.70215 21.85962,-4.90429 21.85962,-6.77217 0,-0.48532 -1.42733,-1.32464 -3.04271,-1.78922 -2.53758,-0.72979 -7.05233,-1.47317 -8.94312,-1.47253 -1.04764,2.6e-4 -12.26323,0.64693 -24.92355,1.43683 -12.66031,0.7899 -24.47796,1.51933 -26.26144,1.62094 l -3.2427,0.18476 -1.58595,1.69538 c -0.87227,0.93247 -1.58595,1.92113 -1.58595,2.19704 0,1.06179 1.16188,0.96923 10.31875,-0.82207 4.58751,-0.89742 5.83199,-1.04782 8.06979,-0.97531 3.15685,0.1023 4.20352,0.53008 6.97347,2.85005 1.00877,0.8449 2.38088,1.74499 3.04912,2.00019 2.51023,0.95867 6.59147,1.12168 13.09696,0.52312 z M 33.116789,34.416585 c -0.113776,-0.56889 -5.29e-4,-1.00007 0.408276,-1.55285 0.736965,-0.9968 0.769228,-1.70795 0.06027,-1.32853 -0.547685,0.29312 -1.409533,1.56459 -1.855354,2.73719 -0.246478,0.64828 -0.209801,0.76003 0.313251,0.95447 0.913982,0.33975 1.252466,0.0843 1.073552,-0.81028 z m 32.194902,0.71877 c 0,-0.20969 -0.124277,-0.45807 -0.276172,-0.55194 -0.341619,-0.21114 -1.095071,0.37637 -0.895924,0.6986 0.236955,0.3834 1.172096,0.26639 1.172096,-0.14666 z m -48.815624,-0.82486 c 1.309687,-0.22588 3.631406,-0.77473 5.159374,-1.21967 1.527969,-0.44493 2.986485,-0.86894 3.241146,-0.94224 0.254662,-0.0733 0.463021,-0.22395 0.463021,-0.33479 0,-0.11083 -0.766628,-1.02954 -1.703619,-2.04158 -3.279281,-3.54192 -7.432419,-5.81109 -11.128672,-6.080424 -2.092666,-0.152485 -1.724772,-0.444145 -3.6009092,2.854744 -1.0351,1.82006 -3.4975029,7.38382 -3.3383584,7.54296 0.6710633,0.67107 7.4965856,0.80935 10.9080176,0.221 z m 31.461974,-0.93094 c 0.37678,-0.44778 0.754496,-1.13239 0.839367,-1.52135 0.273364,-1.25282 0.34917,-1.36867 0.895564,-1.36867 0.420799,0 0.537469,0.1723 0.537469,0.79375 0,0.43656 0.06736,0.79375 0.149686,0.79375 0.54805,0 1.93317,-1.13971 1.958567,-1.61155 0.0046,-0.086 -0.616664,-0.29695 -1.380649,-0.46882 -0.763984,-0.17188 -1.674497,-0.38789 -2.023361,-0.48004 -0.579681,-0.15311 -0.619001,-0.10657 -0.456618,0.54041 0.244785,0.9753 -0.190045,1.65687 -1.288301,2.01933 -0.926611,0.30581 -1.129602,0.75513 -0.767474,1.69882 0.24561,0.64005 0.780158,0.50234 1.53575,-0.39563 z M 6.9386878,28.108285 c 1.022324,-2.11006 1.905493,-3.92952 1.962597,-4.04326 0.182508,-0.363508 -2.6214526,0.81692 -3.6753637,1.54729 -1.7910397,1.24119 -3.1496463,3.46888 -3.1496463,5.16443 0,0.6244 0.2745695,1.10754 1.0949766,1.92673 l 1.0949765,1.09335 0.4068442,-0.92604 c 0.2237645,-0.50933 1.2432914,-2.65245 2.2656157,-4.7625 z m 73.1896702,2.64583 v -2.11667 H 78.506949 76.88554 l 0.6928,0.8599 c 0.381043,0.47294 1.021379,1.42532 1.422972,2.1164 0.401595,0.69107 0.819467,1.25662 0.928608,1.25677 0.109141,1.4e-4 0.198438,-0.95223 0.198438,-2.1164 z m 53.842702,0.53332 c 2.97669,-1.45841 6.43685,-4.37112 5.8682,-4.93977 -0.20217,-0.20217 -3.75642,1.10604 -5.00254,1.84129 -0.62163,0.36677 -2.02321,1.51702 -3.11462,2.55609 l -1.98437,1.88923 1.05833,-0.1549 c 0.58208,-0.0852 2.01083,-0.62157 3.175,-1.19194 z m -79.590015,-1.48829 c 0.178321,-0.85721 0.329419,-1.69379 0.335769,-1.85905 0.0079,-0.20502 -0.59041,-0.14244 -1.883159,0.19696 -1.042085,0.27359 -1.940605,0.54334 -1.996709,0.59945 -0.05611,0.0561 0.347831,0.1864 0.897641,0.28954 1.985531,0.37249 2.440178,1.14917 1.48046,2.52909 l -0.454978,0.65419 0.648378,-0.4258 c 0.476895,-0.31319 0.734121,-0.838 0.972598,-1.98438 z M 29.00459,28.836435 c 2.836558,-3.95695 4.740757,-6.940953 4.632013,-7.258678 -0.05889,-0.172048 0.152183,-0.451562 0.469045,-0.621141 0.461426,-0.246946 0.65573,-0.228706 0.976075,0.09164 0.356896,0.356897 0.102348,0.836888 -2.36392,4.457599 -1.520137,2.2317 -2.864541,4.22654 -2.987564,4.43299 -0.292978,0.49163 3.861041,-1.72461 6.518164,-3.47756 1.810697,-1.19454 2.123466,-1.51623 2.372143,-2.43974 0.157543,-0.585077 0.567362,-1.61814 0.910706,-2.295699 1.132631,-2.235137 2.014093,-2.664475 2.601611,-1.26718 l 0.343543,0.817047 0.983723,-1.147776 C 46.170513,16.965547 47.578602,13.774914 47.791255,10.3139 48.016604,6.646241 46.916651,4.3848756 44.279798,3.0947826 38.670952,0.35062963 28.177339,5.0059956 18.389814,14.580566 c -2.193303,2.145582 -6.788539,7.416617 -6.788539,7.786896 0,0.06167 0.746167,0.172016 1.658149,0.245223 1.838833,0.147603 4.20109,1.010764 6.45617,2.35906 1.754883,1.04924 5.386308,4.37689 6.182751,5.66556 0.742071,1.2007 1.105664,0.9899 3.106245,-1.80087 z m 53.496715,0.51814 c 0.358092,-1.19521 0.321786,-1.27873 -0.466273,-1.07265 -0.423971,0.11087 -0.583758,0.35242 -0.583758,0.88248 0,0.40139 -0.06935,1.13165 -0.154112,1.62278 l -0.154112,0.89297 0.524346,-0.64617 c 0.288391,-0.3554 0.663649,-1.11113 0.833909,-1.67941 z m 9.944132,1.17125 0.626586,-0.49287 -0.595326,-0.55928 -0.595326,-0.55928 -0.311909,0.82634 c -0.485566,1.28641 -0.147053,1.5898 0.875975,0.78509 z m -52.814821,-1.32689 c 0.536554,-1.05173 1.421064,-4.16761 1.286981,-4.53367 -0.04393,-0.11992 -0.423645,0.0577 -0.843819,0.39464 -0.610913,0.48994 -0.834234,0.97592 -1.114756,2.42584 -0.614122,3.1742 -0.379323,3.77316 0.671594,1.71319 z m 47.336115,0.47612 c 0.05032,-0.3524 0.169386,-0.76542 0.264583,-0.91781 0.0952,-0.15239 -0.09421,0.0262 -0.420912,0.39688 -0.645986,0.73293 -0.794965,1.44482 -0.265899,1.27059 0.181901,-0.0599 0.371904,-0.39725 0.422228,-0.74966 z m 15.500209,-0.24386 0.17307,-0.66146 -0.39854,0.66146 c -0.44416,0.73719 -0.56003,1.31696 -0.18244,0.91282 0.12917,-0.13825 0.31273,-0.54901 0.40791,-0.91282 z m -45.499421,-0.80861 c 0.692388,-0.8813 1.209272,-1.65198 1.148633,-1.71262 -0.06064,-0.0606 -0.536372,0.007 -1.057175,0.1512 -0.829712,0.22909 -0.98343,0.40646 -1.241893,1.43291 -0.303477,1.20521 -0.364736,1.73087 -0.201716,1.73087 0.0513,0 0.659762,-0.72106 1.352151,-1.60236 z m -4.139729,-1.65305 2.20047,-0.58105 1.123998,-3.307286 c 0.618199,-1.81901 1.38942,-3.902604 1.713823,-4.630208 l 0.589822,-1.322917 -1.88423,1.852083 c -1.036325,1.018646 -2.980513,3.161771 -4.320416,4.7625 -3.482718,4.160668 -3.282122,3.839058 -2.383941,3.822188 0.418,-0.008 1.750214,-0.27574 2.960474,-0.59531 z m 44.281015,-2.1458 c 1.016769,-1.993559 1.436479,-3.350576 2.052819,-6.637327 0.53826,-2.870346 0.960076,-6.430405 0.73672,-6.217709 -0.0764,0.07276 -0.57145,1.203855 -1.1001,2.513542 -1.066799,2.642932 -2.060186,6.311812 -2.793053,10.315594 -0.540525,2.95298 -0.391067,2.95648 1.103614,0.0259 z m -14.070031,0.38975 c 0,-1.01006 -0.101523,-1.899217 -0.225605,-1.975904 -0.536892,-0.331817 -1.058595,0.582335 -1.231976,2.158724 l -0.181875,1.65364 h 0.819727 0.819729 z m 89.693746,1.57188 c 0.30116,-0.19463 0.1895,-0.25746 -0.46302,-0.26053 -0.47294,-0.002 -0.8599,0.11501 -0.8599,0.26053 0,0.33607 0.80288,0.33607 1.32292,0 z m 10.45251,-0.53079 c 0.2642,-0.29193 0.41091,-0.60023 0.32603,-0.68511 -0.25284,-0.25284 -6.00249,0.44099 -6.90363,0.83308 -0.76041,0.33087 -0.5333,0.363 2.63252,0.37246 3.13968,0.009 3.50979,-0.0394 3.94508,-0.52043 z m 27.25061,-1.1908 17.72709,-1.16294 -14.02292,0.10864 c -10.73847,0.0832 -15.66514,0.23389 -21.03437,0.6434 -3.85631,0.29412 -7.21676,0.53707 -7.46769,0.53988 -0.25092,0.003 -0.62561,0.33253 -0.83265,0.73271 l -0.37642,0.72761 4.13994,-0.21318 c 2.27697,-0.11725 12.11713,-0.7365 21.86702,-1.37612 z m -152.17311,0.41301 c 0.480322,-0.18262 0.687392,-0.50597 0.803468,-1.25466 0.268303,-1.730555 0.71892,-6.755894 0.615103,-6.85971 -0.108265,-0.108265 -2.272406,5.344883 -2.936528,7.39939 l -0.414967,1.28372 0.642916,-0.16136 c 0.353602,-0.0888 0.934106,-0.27207 1.290008,-0.40738 z M 41.223517,21.78342 c -0.01065,-0.65946 -0.03113,-0.649996 -0.518076,0.239446 -0.658833,1.203399 -0.658833,1.522277 0,0.926041 0.291042,-0.26339 0.524177,-0.787857 0.518076,-1.165487 z m 41.5243,-1.165232 c -0.02519,-0.806285 -0.03591,-0.814512 -0.23821,-0.182822 -0.304265,0.950068 -0.304265,1.378672 0,1.190625 0.145521,-0.08994 0.252715,-0.543449 0.23821,-1.007803 z M 160.44071,10.289901 c -0.52597,-0.3846 -0.31073,-1.12356 0.44509,-1.528063 0.69575,-0.372352 1.07639,0.02748 0.85728,0.900488 -0.20558,0.819111 -0.70881,1.061599 -1.30237,0.627575 z"
       id="path1249" />
  </g>
</svg>
